# xmcd
#
# Track frame offsets:
#	150
#	15832
#	39282
#	62160
#
# Disc length: 1053 seconds
#
# Revision: 7
# Processed by: cddbd v1.5.2PL0 Copyright (c) Steve Scherf et al.
# Submitted via: EZCDAudioConverter 8.3.2.1
#
DISCID=22041b04
DTITLE=The Soundlovers - People
DYEAR=1997
DGENRE=Euro-House
TTITLE0=People (Radio Edit)
TTITLE1=People (Space People Mix)
TTITLE2=People (Blood On Screen Mix)
TTITLE3=People (Drum'N'Perc Mix)
EXTD=
EXTT0=
EXTT1=
EXTT2=
EXTT3=
PLAYORDER=
